<mxfile host="app.diagrams.net" modified="2023-08-25T15:00:52.322Z" agent="Mozilla/5.0 (Windows NT 10.0; Win64; x64) AppleWebKit/537.36 (KHTML, like Gecko) Chrome/116.0.0.0 Safari/537.36 Edg/116.0.1938.54" version="21.6.9" etag="tAR4o1K9gVOoCoFVZME7" type="github">
  <diagram name="Page-1" id="y7g-Y6-SokLnl_ipWtnO">
    <mxGraphModel>
      <root>
        <mxCell id="0" />
        <mxCell id="1" parent="0" />
        <mxCell id="2" value="Input" style="whiteSpace=wrap;strokeWidth=2;" vertex="1" parent="1">
          <mxGeometry width="53" height="33" as="geometry" />
        </mxCell>
        <mxCell id="3" value="Model" style="rounded=1;absoluteArcSize=1;arcSize=14;whiteSpace=wrap;strokeWidth=2;" vertex="1" parent="1">
          <mxGeometry x="103" width="57" height="33" as="geometry" />
        </mxCell>
        <mxCell id="4" value="Output" style="whiteSpace=wrap;strokeWidth=2;" vertex="1" parent="1">
          <mxGeometry x="210" width="65" height="33" as="geometry" />
        </mxCell>
        <mxCell id="5" value="" style="curved=1;startArrow=none;endArrow=block;exitX=0.9909097923422759;exitY=0.5050505435828007;entryX=-0.008452298348410088;entryY=0.5050505435828007;" edge="1" parent="1" source="2" target="3">
          <mxGeometry relative="1" as="geometry">
            <Array as="points" />
          </mxGeometry>
        </mxCell>
        <mxCell id="6" value="" style="curved=1;startArrow=none;endArrow=block;exitX=0.9968170032166598;exitY=0.5050505435828007;entryX=-0.002791243333082933;entryY=0.5050505435828007;" edge="1" parent="1" source="3" target="4">
          <mxGeometry relative="1" as="geometry">
            <Array as="points" />
          </mxGeometry>
        </mxCell>
      </root>
    </mxGraphModel>
  </diagram>
</mxfile>
